<svg xmlns="http://www.w3.org/2000/svg" viewBox="0 0 24 24" width="32" height="32">
  <defs>
    <linearGradient id="gradient" x1="0%" y1="0%" x2="100%" y2="100%">
      <stop offset="0%" style="stop-color:#1e3a8a"/>
      <stop offset="100%" style="stop-color:#1d4ed8"/>
    </linearGradient>
  </defs>
  <rect width="24" height="24" rx="6" fill="url(#gradient)"/>
  <path d="M12 2C9.24 2 7 4.24 7 7c0 1.53.69 2.9 1.78 3.82L7.2 18.5c-.1.3.02.64.28.82.26.18.6.18.86.02L12 17l3.66 2.34c.14.09.3.13.46.13.14 0 .28-.04.4-.11.26-.18.38-.52.28-.82l-1.58-7.68C16.31 9.9 17 8.53 17 7c0-2.76-2.24-5-5-5zm0 2c1.65 0 3 1.35 3 3s-1.35 3-3 3-3-1.35-3-3 1.35-3 3-3z" fill="white"/>
</svg>
